<svg width="64" height="64" viewBox="0 0 64 64" fill="none" xmlns="http://www.w3.org/2000/svg">
	<style>
    path { fill: #000000; }
    @media (prefers-color-scheme: dark) {
      path { fill: #ffffff; }
    }
  </style>
	<path d="M31.9907 8.04449V8.04659C25.6127 8.05757 20.4484 11.5451 20.4484 15.846C20.4484 20.1541 25.6299 23.6458 32.0213 23.6458V23.6436C38.3985 23.633 43.5638 20.1454 43.5638 15.8446C43.5638 11.5365 38.3824 8.04449 31.9907 8.04449Z" fill="white"></path>
	<path d="M32.3314 26.5769C32.2171 26.5769 32.1049 26.5726 31.9907 26.5708V26.5733C31.8869 26.5747 31.7841 26.5788 31.6799 26.5788C29.531 26.5788 27.4241 25.7826 25.5741 25.2313C25.5716 25.2455 25.5099 34.9709 25.5099 34.9709L25.9335 61.969C25.945 63.2679 29.0054 63.9198 32.0213 63.8423V63.8413C35.0269 63.9138 38.0662 63.2616 38.0792 61.9668L38.5018 34.9695C38.5018 34.9695 38.44 25.244 38.4374 25.23C36.5887 25.7814 34.4808 26.5769 32.3314 26.5769Z" fill="white"></path>
	<path d="M47.4426 15.6166C47.4426 19.0468 44.9572 22.0806 41.146 23.9374C41.171 26.7912 41.3143 44.0986 41.1398 53.4869C41.2767 53.7561 63.924 12.1877 63.924 11.5403H46.0897C46.9286 12.8147 47.4426 14.1304 47.4426 15.6166Z" fill="white"></path>
	<path d="M19.5061 9.54712C22.2474 7.02325 26.652 5.38527 31.6212 5.38527C31.7556 5.38527 31.8881 5.39119 32.0213 5.39378V5.39144C32.1439 5.38885 32.2665 5.38404 32.39 5.38404C37.3601 5.38404 41.7649 7.0214 44.5056 9.54527C44.6297 9.54786 63.9317 9.51062 63.924 9.48867C62.665 7.7074 50.3999 0.477618 32.3983 0.10373C32.2614 0.100894 32.1267 0.102497 31.9907 0.100647V0.102497C31.8642 0.10373 31.741 0.102867 31.6132 0.105456C13.6121 0.479468 1.34752 7.70949 0.0872213 9.49015C0.0799429 9.51247 19.3826 9.54909 19.5061 9.54712Z" fill="white"></path>
	<path d="M22.8667 23.9392C19.0549 22.0826 16.5686 19.0486 16.5686 15.6181C16.5686 14.1321 17.0836 12.816 17.9215 11.5418H0.0872192C0.0872192 12.1898 22.7358 53.7583 22.873 53.4877C22.697 44.0996 22.8407 26.7924 22.8667 23.9392Z" fill="white"></path>
</svg>
